<?xml version="1.0" encoding="utf-8"?>
<!-- Generator: Adobe Illustrator 19.0.1, SVG Export Plug-In . SVG Version: 6.00 Build 0)  -->
<svg version="1.1" id="Layer_1" xmlns="http://www.w3.org/2000/svg" xmlns:xlink="http://www.w3.org/1999/xlink" x="0px" y="0px"
	 width="48.6px" height="59px" viewBox="-938 178 48.6 59" style="enable-background:new -938 178 48.6 59;" xml:space="preserve">
<style type="text/css">
	.st0{fill:#13425F;}
	.st1{fill:#ECF0F1;}
	.st2{fill:#E8E8E8;}
	.st3{fill:#FF8064;}
	.st4{fill:#E8694B;}
	.st5{fill:#FFFFFF;}
	.st6{fill:#EC4B53;}
	.st7{fill:#919191;}
</style>
<path class="st0" d="M-936.1,188h35.9v46.4c0,1.4-1.2,2.6-2.6,2.6h-30.7c-1.4,0-2.6-1.2-2.6-2.6V188L-936.1,188z"/>
<path class="st1" d="M-934.6,187.3h30.7c2.8,0,5.1,2.3,5.1,5.1v38.7c0,2.8-2.3,5.1-5.1,5.1H-932c-1.4,0-2.6-1.2-2.6-2.6V187.3
	L-934.6,187.3z"/>
<path class="st2" d="M-934.6,186.8h30.7c2.8,0,5.1,2.3,5.1,5.1v38.7c0,2.8-2.3,5.1-5.1,5.1H-932c-1.4,0-2.6-1.2-2.6-2.6V186.8
	L-934.6,186.8z"/>
<path class="st1" d="M-934.6,184.4h29.4c2.7,0,4.9,2.2,4.9,4.9v39.1c0,2.7-2.2,4.9-4.9,4.9h-29.4V184.4z"/>
<path class="st0" d="M-936.1,183.9h30.7c2.8,0,5.1,2.3,5.1,5.1v38.7c0,2.8-2.3,5.1-5.1,5.1h-30.7V183.9z"/>
<path class="st3" d="M-936.1,183.9h6.6v49h-6.6V183.9z"/>
<path class="st4" d="M-932.9,186.3c0.7,0,1.3,0.6,1.3,1.3s-0.6,1.3-1.3,1.3c-0.7,0-1.3-0.6-1.3-1.3
	C-934.2,186.8-933.6,186.3-932.9,186.3z"/>
<path class="st5" d="M-936.9,187.1h3.6c0.3,0,0.5,0.2,0.5,0.5s-0.2,0.5-0.5,0.5h-3.6c-0.3,0-0.5-0.2-0.5-0.5
	S-937.1,187.1-936.9,187.1z"/>
<path class="st4" d="M-932.9,190.3c0.7,0,1.3,0.6,1.3,1.3s-0.6,1.3-1.3,1.3c-0.7,0-1.3-0.6-1.3-1.3
	C-934.2,190.8-933.6,190.3-932.9,190.3z"/>
<path class="st5" d="M-936.9,191.1h3.6c0.3,0,0.5,0.2,0.5,0.5s-0.2,0.5-0.5,0.5h-3.6c-0.3,0-0.5-0.2-0.5-0.5
	S-937.1,191.1-936.9,191.1z"/>
<path class="st4" d="M-932.9,194.3c0.7,0,1.3,0.6,1.3,1.3s-0.6,1.3-1.3,1.3c-0.7,0-1.3-0.6-1.3-1.3
	C-934.2,194.8-933.6,194.3-932.9,194.3z"/>
<path class="st5" d="M-936.9,195.1h3.6c0.3,0,0.5,0.2,0.5,0.5s-0.2,0.5-0.5,0.5h-3.6c-0.3,0-0.5-0.2-0.5-0.5
	C-937.3,195.3-937.1,195.1-936.9,195.1z"/>
<path class="st4" d="M-932.9,198.3c0.7,0,1.3,0.6,1.3,1.3s-0.6,1.3-1.3,1.3c-0.7,0-1.3-0.6-1.3-1.3
	C-934.2,198.8-933.6,198.3-932.9,198.3z"/>
<path class="st5" d="M-936.9,199.1h3.6c0.3,0,0.5,0.2,0.5,0.5s-0.2,0.5-0.5,0.5h-3.6c-0.3,0-0.5-0.2-0.5-0.5
	C-937.3,199.3-937.1,199.1-936.9,199.1z"/>
<path class="st4" d="M-932.9,202.3c0.7,0,1.3,0.6,1.3,1.3s-0.6,1.3-1.3,1.3c-0.7,0-1.3-0.6-1.3-1.3
	C-934.2,202.8-933.6,202.3-932.9,202.3z"/>
<path class="st5" d="M-936.9,203.1h3.6c0.3,0,0.5,0.2,0.5,0.5s-0.2,0.5-0.5,0.5h-3.6c-0.3,0-0.5-0.2-0.5-0.5
	C-937.3,203.3-937.1,203.1-936.9,203.1z"/>
<path class="st4" d="M-932.9,206.3c0.7,0,1.3,0.6,1.3,1.3s-0.6,1.3-1.3,1.3c-0.7,0-1.3-0.6-1.3-1.3
	C-934.2,206.8-933.6,206.3-932.9,206.3z"/>
<path class="st5" d="M-936.9,207.1h3.6c0.3,0,0.5,0.2,0.5,0.5s-0.2,0.5-0.5,0.5h-3.6c-0.3,0-0.5-0.2-0.5-0.5
	C-937.3,207.3-937.1,207.1-936.9,207.1z"/>
<path class="st4" d="M-932.9,210.3c0.7,0,1.3,0.6,1.3,1.3s-0.6,1.3-1.3,1.3c-0.7,0-1.3-0.6-1.3-1.3
	C-934.2,210.8-933.6,210.3-932.9,210.3z"/>
<path class="st5" d="M-936.9,211.1h3.6c0.3,0,0.5,0.2,0.5,0.5s-0.2,0.5-0.5,0.5h-3.6c-0.3,0-0.5-0.2-0.5-0.5
	C-937.3,211.3-937.1,211.1-936.9,211.1z"/>
<path class="st4" d="M-932.9,214.3c0.7,0,1.3,0.6,1.3,1.3s-0.6,1.3-1.3,1.3c-0.7,0-1.3-0.6-1.3-1.3S-933.6,214.3-932.9,214.3z"/>
<path class="st5" d="M-936.9,215.1h3.6c0.3,0,0.5,0.2,0.5,0.5s-0.2,0.5-0.5,0.5h-3.6c-0.3,0-0.5-0.2-0.5-0.5
	S-937.1,215.1-936.9,215.1z"/>
<path class="st4" d="M-932.9,218.3c0.7,0,1.3,0.6,1.3,1.3s-0.6,1.3-1.3,1.3c-0.7,0-1.3-0.6-1.3-1.3
	C-934.2,218.8-933.6,218.3-932.9,218.3z"/>
<path class="st5" d="M-936.9,219.1h3.6c0.3,0,0.5,0.2,0.5,0.5s-0.2,0.5-0.5,0.5h-3.6c-0.3,0-0.5-0.2-0.5-0.5
	C-937.3,219.3-937.1,219.1-936.9,219.1z"/>
<path class="st4" d="M-932.9,222.3c0.7,0,1.3,0.6,1.3,1.3s-0.6,1.3-1.3,1.3c-0.7,0-1.3-0.6-1.3-1.3S-933.6,222.3-932.9,222.3z"/>
<path class="st5" d="M-936.9,223.1h3.6c0.3,0,0.5,0.2,0.5,0.5s-0.2,0.5-0.5,0.5h-3.6c-0.3,0-0.5-0.2-0.5-0.5
	C-937.3,223.4-937.1,223.1-936.9,223.1z"/>
<path class="st4" d="M-932.9,226.3c0.7,0,1.3,0.6,1.3,1.3s-0.6,1.3-1.3,1.3c-0.7,0-1.3-0.6-1.3-1.3
	C-934.2,226.8-933.6,226.3-932.9,226.3z"/>
<path class="st5" d="M-936.9,227.1h3.6c0.3,0,0.5,0.2,0.5,0.5s-0.2,0.5-0.5,0.5h-3.6c-0.3,0-0.5-0.2-0.5-0.5
	C-937.3,227.4-937.1,227.1-936.9,227.1z"/>
<path class="st0" d="M-894,214.8h3.9v-33.5h-3.9V214.8z"/>
<path class="st0" d="M-890.1,195.4v-1h-3.9v1H-890.1L-890.1,195.4z"/>
<path class="st3" d="M-891.4,219.1l1.2-4.5h-3.8l1.2,4.5H-891.4L-891.4,219.1z"/>
<path class="st6" d="M-891.4,219.1l1.2-4.5h-0.8l-0.6,4.5H-891.4L-891.4,219.1L-891.4,219.1z"/>
<path class="st3" d="M-893.2,177.9h2.3c0.6,0,1.1,0.6,1.1,1.2v15.6h-4.6v-15.6C-894.4,178.5-893.9,177.9-893.2,177.9L-893.2,177.9
	L-893.2,177.9z"/>
<path class="st6" d="M-890.2,179.3v2v5v8.6h0.1h0.3v-8.3v-7.2c0-0.7-0.5-1.2-1.1-1.2h-0.1C-890.6,178.1-890.2,178.6-890.2,179.3
	L-890.2,179.3L-890.2,179.3z"/>
<path class="st7" d="M-892.2,222.3h0.2l0.6-3.2h-1.4L-892.2,222.3L-892.2,222.3z"/>
<path class="st1" d="M-894.4,181.3h5.3c0.2,0,0.3,0.1,0.3,0.3v9l-0.1,0.2l-0.4,0.6c-0.2,0.3-0.7,0.1-0.4-0.3l0.4-0.6v-8.6h-5.1
	V181.3L-894.4,181.3L-894.4,181.3z"/>
<path class="st0" d="M-890.5,214.8h0.3v-19.2h-0.3V214.8z"/>
</svg>
